# xmcd CD database file
#
# Track frame offsets:
#	150
#	21587
#	43511
#	61374
#	75945
#	94822
#	109983
#	125604
#	146091
#	168717
#
# Disc length: 2557 seconds
#
# Revision: 1
# Processed by: cddbd v1.5.2PL0 Copyright (c) Steve Scherf et al.
# Submitted via: CDex 1.70beta2
#
DISCID=8b09fb0a
DTITLE=Sheep On Drugs - Two For The Show
DYEAR=1998
DGENRE=Techno-Industrial
TTITLE0=Uberman (live)
TTITLE1=Let the good times roll (live)
TTITLE2=X-Lover (live)
TTITLE3=Come fly with me (live)
TTITLE4=A to H (live)
TTITLE5=Motorbike (live)
TTITLE6=WCFM (live)
TTITLE7=Dirt box blues (live)
TTITLE8=15 minutes of fame (live)
TTITLE9=Here to stay (live)
EXTD=YEAR: 1998
EXTT0=
EXTT1=
EXTT2=
EXTT3=
EXTT4=
EXTT5=
EXTT6=
EXTT7=
EXTT8=
EXTT9=
PLAYORDER=
